# Blender v2.78 (sub 0) OBJ File: ''
# www.blender.org
mtllib untitled.mtl
o Cube.007_Cube.009
v -3.989399 4.346791 3.937999
v -3.989399 4.626791 3.937999
v -3.989399 4.346791 -3.937999
v -3.989399 4.626791 -3.937999
v 3.989399 4.346791 3.937999
v 3.989399 4.626791 3.937999
v 3.989399 4.346791 -3.937999
v 3.989399 4.626791 -3.937999
vt 1.0000 0.0000
vt 0.0000 1.0000
vt 0.0000 0.0000
vt 1.0000 0.0000
vt 0.0000 1.0000
vt 0.0000 0.0000
vt 1.0000 0.0000
vt 0.0000 1.0000
vt 0.0000 0.0000
vt 1.0000 0.0000
vt 0.0000 1.0000
vt 0.0000 0.0000
vt 1.0000 0.0000
vt 0.0000 1.0000
vt 0.0000 0.0000
vt 1.0000 1.0000
vt 1.0000 1.0000
vt 1.0000 1.0000
vt 1.0000 1.0000
vt 1.0000 1.0000
vn -1.0000 0.0000 0.0000
vn 0.0000 0.0000 -1.0000
vn 1.0000 0.0000 0.0000
vn 0.0000 0.0000 1.0000
vn 0.0000 -1.0000 0.0000
vn 0.0000 1.0000 0.0000
usemtl None
s off
f 2/1/1 3/2/1 1/3/1
f 4/4/2 7/5/2 3/6/2
f 8/7/3 5/8/3 7/9/3
f 6/10/4 1/11/4 5/12/4
f 7/13/5 1/11/5 3/6/5
f 4/4/6 6/14/6 8/15/6
f 2/1/1 4/16/1 3/2/1
f 4/4/2 8/17/2 7/5/2
f 8/7/3 6/18/3 5/8/3
f 6/10/4 2/19/4 1/11/4
f 7/13/5 5/20/5 1/11/5
f 4/4/6 2/19/6 6/14/6
o Cube.004_Cube.005
v -3.699999 0.042071 -3.530264
v -3.699999 4.428635 -3.530264
v -3.699999 0.042071 -3.788664
v -3.699999 4.428635 -3.788664
v 3.699999 0.042071 -3.530264
v 3.699999 4.428635 -3.530264
v 3.699999 0.042071 -3.788664
v 3.699999 4.428635 -3.788664
vt 1.0000 0.0000
vt 0.0000 1.0000
vt 0.0000 0.0000
vt 1.0000 0.0000
vt 0.0000 1.0000
vt 0.0000 0.0000
vt 1.0000 0.0000
vt 0.0000 1.0000
vt 0.0000 0.0000
vt 1.0000 0.0000
vt 0.0000 1.0000
vt 0.0000 0.0000
vt 1.0000 0.0000
vt 0.0000 1.0000
vt 0.0000 0.0000
vt 1.0000 1.0000
vt 1.0000 1.0000
vt 1.0000 1.0000
vt 1.0000 1.0000
vt 1.0000 1.0000
vn -1.0000 0.0000 0.0000
vn 0.0000 0.0000 -1.0000
vn 1.0000 0.0000 0.0000
vn 0.0000 0.0000 1.0000
vn 0.0000 -1.0000 0.0000
vn 0.0000 1.0000 0.0000
usemtl None
s off
f 10/21/7 11/22/7 9/23/7
f 12/24/8 15/25/8 11/26/8
f 16/27/9 13/28/9 15/29/9
f 14/30/10 9/31/10 13/32/10
f 15/33/11 9/31/11 11/26/11
f 12/24/12 14/34/12 16/35/12
f 10/21/7 12/36/7 11/22/7
f 12/24/8 16/37/8 15/25/8
f 16/27/9 14/38/9 13/28/9
f 14/30/10 10/39/10 9/31/10
f 15/33/11 13/40/11 9/31/11
f 12/24/12 10/39/12 14/34/12
o Cube.001_Cube.002
v 3.662367 0.045813 3.820000
v 3.662367 4.425813 3.820000
v 3.662367 0.045813 -3.820000
v 3.662367 4.425813 -3.820000
v 3.862367 0.045813 3.820000
v 3.862367 4.425813 3.820000
v 3.862367 0.045813 -3.820000
v 3.862367 4.425813 -3.820000
vt 1.0000 0.0000
vt 0.0000 1.0000
vt 0.0000 0.0000
vt 1.0000 0.0000
vt 0.0000 1.0000
vt 0.0000 0.0000
vt 1.0000 0.0000
vt 0.0000 1.0000
vt 0.0000 0.0000
vt 1.0000 0.0000
vt 0.0000 1.0000
vt 0.0000 0.0000
vt 1.0000 0.0000
vt 0.0000 1.0000
vt 0.0000 0.0000
vt 1.0000 1.0000
vt 1.0000 1.0000
vt 1.0000 1.0000
vt 1.0000 1.0000
vt 1.0000 1.0000
vn -1.0000 0.0000 0.0000
vn 0.0000 0.0000 -1.0000
vn 1.0000 0.0000 0.0000
vn 0.0000 0.0000 1.0000
vn 0.0000 -1.0000 0.0000
vn 0.0000 1.0000 0.0000
usemtl None
s off
f 18/41/13 19/42/13 17/43/13
f 20/44/14 23/45/14 19/46/14
f 24/47/15 21/48/15 23/49/15
f 22/50/16 17/51/16 21/52/16
f 23/53/17 17/51/17 19/46/17
f 20/44/18 22/54/18 24/55/18
f 18/41/13 20/56/13 19/42/13
f 20/44/14 24/57/14 23/45/14
f 24/47/15 22/58/15 21/48/15
f 22/50/16 18/59/16 17/51/16
f 23/53/17 21/60/17 17/51/17
f 20/44/18 18/59/18 22/54/18
o Cube_Cube.001
v -4.000000 -0.050000 4.000000
v -4.000000 0.050000 4.000000
v -4.000000 -0.050000 -4.000000
v -4.000000 0.050000 -4.000000
v 4.000000 -0.050000 4.000000
v 4.000000 0.050000 4.000000
v 4.000000 -0.050000 -4.000000
v 4.000000 0.050000 -4.000000
vt 1.0000 0.0000
vt 0.0000 1.0000
vt 0.0000 0.0000
vt 1.0000 0.0000
vt 0.0000 1.0000
vt 0.0000 0.0000
vt 1.0000 0.0000
vt 0.0000 1.0000
vt 0.0000 0.0000
vt 1.0000 0.0000
vt 0.0000 1.0000
vt 0.0000 0.0000
vt 1.0000 0.0000
vt 0.0000 1.0000
vt 0.0000 0.0000
vt 1.0000 1.0000
vt 1.0000 1.0000
vt 1.0000 1.0000
vt 1.0000 1.0000
vt 1.0000 1.0000
vn -1.0000 0.0000 0.0000
vn 0.0000 0.0000 -1.0000
vn 1.0000 0.0000 0.0000
vn 0.0000 0.0000 1.0000
vn 0.0000 -1.0000 0.0000
vn 0.0000 1.0000 0.0000
usemtl None
s off
f 26/61/19 27/62/19 25/63/19
f 28/64/20 31/65/20 27/66/20
f 32/67/21 29/68/21 31/69/21
f 30/70/22 25/71/22 29/72/22
f 31/73/23 25/71/23 27/66/23
f 28/64/24 30/74/24 32/75/24
f 26/61/19 28/76/19 27/62/19
f 28/64/20 32/77/20 31/65/20
f 32/67/21 30/78/21 29/68/21
f 30/70/22 26/79/22 25/71/22
f 31/73/23 29/80/23 25/71/23
f 28/64/24 26/79/24 30/74/24
o Cube.002_Cube.003
v -3.820965 0.045813 3.820000
v -3.820965 4.425813 3.820000
v -3.820965 0.045813 -3.820000
v -3.820965 4.425813 -3.820000
v -3.620965 0.045813 3.820000
v -3.620965 4.425813 3.820000
v -3.620965 0.045813 -3.820000
v -3.620965 4.425813 -3.820000
vt 1.0000 0.0000
vt 0.0000 1.0000
vt 0.0000 0.0000
vt 1.0000 0.0000
vt 0.0000 1.0000
vt 0.0000 0.0000
vt 1.0000 0.0000
vt 0.0000 1.0000
vt 0.0000 0.0000
vt 1.0000 0.0000
vt 0.0000 1.0000
vt 0.0000 0.0000
vt 1.0000 0.0000
vt 0.0000 1.0000
vt 0.0000 0.0000
vt 1.0000 1.0000
vt 1.0000 1.0000
vt 1.0000 1.0000
vt 1.0000 1.0000
vt 1.0000 1.0000
vn -1.0000 0.0000 0.0000
vn 0.0000 0.0000 -1.0000
vn 1.0000 0.0000 0.0000
vn 0.0000 0.0000 1.0000
vn 0.0000 -1.0000 0.0000
vn 0.0000 1.0000 0.0000
usemtl None
s off
f 34/81/25 35/82/25 33/83/25
f 36/84/26 39/85/26 35/86/26
f 40/87/27 37/88/27 39/89/27
f 38/90/28 33/91/28 37/92/28
f 39/93/29 33/91/29 35/86/29
f 36/84/30 38/94/30 40/95/30
f 34/81/25 36/96/25 35/82/25
f 36/84/26 40/97/26 39/85/26
f 40/87/27 38/98/27 37/88/27
f 38/90/28 34/99/28 33/91/28
f 39/93/29 37/100/29 33/91/29
f 36/84/30 34/99/30 38/94/30
o Cube.003_Cube.006
v -3.666174 0.042071 3.811188
v -3.666174 4.428635 3.811188
v -3.666174 0.042071 3.552788
v -3.666174 4.428635 3.552788
v -0.706174 0.042071 3.811188
v -0.706174 4.428635 3.811188
v -0.706174 0.042071 3.552788
v -0.706174 4.428635 3.552788
vt 1.0000 0.0000
vt 0.0000 1.0000
vt 0.0000 0.0000
vt 1.0000 0.0000
vt 0.0000 1.0000
vt 0.0000 0.0000
vt 1.0000 0.0000
vt 0.0000 1.0000
vt 0.0000 0.0000
vt 1.0000 0.0000
vt 0.0000 1.0000
vt 0.0000 0.0000
vt 1.0000 0.0000
vt 0.0000 1.0000
vt 0.0000 0.0000
vt 1.0000 1.0000
vt 1.0000 1.0000
vt 1.0000 1.0000
vt 1.0000 1.0000
vt 1.0000 1.0000
vn -1.0000 0.0000 0.0000
vn 0.0000 0.0000 -1.0000
vn 1.0000 0.0000 0.0000
vn 0.0000 0.0000 1.0000
vn 0.0000 -1.0000 0.0000
vn 0.0000 1.0000 0.0000
usemtl None
s off
f 42/101/31 43/102/31 41/103/31
f 44/104/32 47/105/32 43/106/32
f 48/107/33 45/108/33 47/109/33
f 46/110/34 41/111/34 45/112/34
f 47/113/35 41/111/35 43/106/35
f 44/104/36 46/114/36 48/115/36
f 42/101/31 44/116/31 43/102/31
f 44/104/32 48/117/32 47/105/32
f 48/107/33 46/118/33 45/108/33
f 46/110/34 42/119/34 41/111/34
f 47/113/35 45/120/35 41/111/35
f 44/104/36 42/119/36 46/114/36
o Cube.005_Cube.007
v 0.799510 0.042071 3.811188
v 0.799510 4.428635 3.811188
v 0.799510 0.042071 3.552788
v 0.799510 4.428635 3.552788
v 3.759510 0.042071 3.811188
v 3.759510 4.428635 3.811188
v 3.759510 0.042071 3.552788
v 3.759510 4.428635 3.552788
vt 1.0000 0.0000
vt 0.0000 1.0000
vt 0.0000 0.0000
vt 1.0000 0.0000
vt 0.0000 1.0000
vt 0.0000 0.0000
vt 1.0000 0.0000
vt 0.0000 1.0000
vt 0.0000 0.0000
vt 1.0000 0.0000
vt 0.0000 1.0000
vt 0.0000 0.0000
vt 1.0000 0.0000
vt 0.0000 1.0000
vt 0.0000 0.0000
vt 1.0000 1.0000
vt 1.0000 1.0000
vt 1.0000 1.0000
vt 1.0000 1.0000
vt 1.0000 1.0000
vn -1.0000 0.0000 0.0000
vn 0.0000 0.0000 -1.0000
vn 1.0000 0.0000 0.0000
vn 0.0000 0.0000 1.0000
vn 0.0000 -1.0000 0.0000
vn 0.0000 1.0000 0.0000
usemtl None
s off
f 50/121/37 51/122/37 49/123/37
f 52/124/38 55/125/38 51/126/38
f 56/127/39 53/128/39 55/129/39
f 54/130/40 49/131/40 53/132/40
f 55/133/41 49/131/41 51/126/41
f 52/124/42 54/134/42 56/135/42
f 50/121/37 52/136/37 51/122/37
f 52/124/38 56/137/38 55/125/38
f 56/127/39 54/138/39 53/128/39
f 54/130/40 50/139/40 49/131/40
f 55/133/41 53/140/41 49/131/41
f 52/124/42 50/139/42 54/134/42
o Cube.006_Cube.008
v -0.709975 3.094557 3.811188
v -0.709975 4.410525 3.811188
v -0.709975 3.094557 3.552788
v -0.709975 4.410525 3.552788
v 0.888425 3.094557 3.811188
v 0.888425 4.410525 3.811188
v 0.888425 3.094557 3.552788
v 0.888425 4.410525 3.552788
vt 1.0000 0.0000
vt 0.0000 1.0000
vt 0.0000 0.0000
vt 1.0000 0.0000
vt 0.0000 1.0000
vt 0.0000 0.0000
vt 1.0000 0.0000
vt 0.0000 1.0000
vt 0.0000 0.0000
vt 1.0000 0.0000
vt 0.0000 1.0000
vt 0.0000 0.0000
vt 1.0000 0.0000
vt 0.0000 1.0000
vt 0.0000 0.0000
vt 1.0000 1.0000
vt 1.0000 1.0000
vt 1.0000 1.0000
vt 1.0000 1.0000
vt 1.0000 1.0000
vn -1.0000 0.0000 0.0000
vn 0.0000 0.0000 -1.0000
vn 1.0000 0.0000 0.0000
vn 0.0000 0.0000 1.0000
vn 0.0000 -1.0000 0.0000
vn 0.0000 1.0000 0.0000
usemtl None
s off
f 58/141/43 59/142/43 57/143/43
f 60/144/44 63/145/44 59/146/44
f 64/147/45 61/148/45 63/149/45
f 62/150/46 57/151/46 61/152/46
f 63/153/47 57/151/47 59/146/47
f 60/144/48 62/154/48 64/155/48
f 58/141/43 60/156/43 59/142/43
f 60/144/44 64/157/44 63/145/44
f 64/147/45 62/158/45 61/148/45
f 62/150/46 58/159/46 57/151/46
f 63/153/47 61/160/47 57/151/47
f 60/144/48 58/159/48 62/154/48
